<mxfile host="f7f77aef-972a-488f-b49f-7de7dbdf7687" modified="2020-09-22T15:18:07.553Z" agent="5.0 (X11; Linux x86_64) AppleWebKit/537.36 (KHTML, like Gecko) Code/1.49.0 Chrome/83.0.4103.122 Electron/9.2.1 Safari/537.36" etag="ILNE-mvN4t7fWhxNP0bM" version="13.1.3">
    <diagram id="bVwRi_h-47pYHwRibMun" name="Page-1">
        <mxGraphModel dx="840" dy="633" grid="1" gridSize="10" guides="1" tooltips="1" connect="1" arrows="1" fold="1" page="1" pageScale="1" pageWidth="850" pageHeight="2500" math="1" shadow="0">
            <root>
                <mxCell id="0"/>
                <mxCell id="1" parent="0"/>
                <mxCell id="PsdoCoqwqm3rHweGqT6z-10" value="" style="rounded=0;whiteSpace=wrap;html=1;align=center;fillColor=#99CCFF;opacity=20;strokeColor=none;" parent="1" vertex="1">
                    <mxGeometry x="80" y="90" width="480" height="510" as="geometry"/>
                </mxCell>
                <mxCell id="10OmN_ZCQDgGou8mG0bi-29" style="edgeStyle=orthogonalEdgeStyle;rounded=0;orthogonalLoop=1;jettySize=auto;html=1;entryX=0;entryY=0.5;entryDx=0;entryDy=0;" parent="1" source="10OmN_ZCQDgGou8mG0bi-1" target="10OmN_ZCQDgGou8mG0bi-6" edge="1">
                    <mxGeometry relative="1" as="geometry"/>
                </mxCell>
                <mxCell id="10OmN_ZCQDgGou8mG0bi-35" style="edgeStyle=orthogonalEdgeStyle;rounded=0;orthogonalLoop=1;jettySize=auto;html=1;entryX=0;entryY=0.5;entryDx=0;entryDy=0;" parent="1" source="10OmN_ZCQDgGou8mG0bi-1" target="10OmN_ZCQDgGou8mG0bi-7" edge="1">
                    <mxGeometry relative="1" as="geometry"/>
                </mxCell>
                <mxCell id="PsdoCoqwqm3rHweGqT6z-24" style="edgeStyle=orthogonalEdgeStyle;rounded=0;orthogonalLoop=1;jettySize=auto;html=1;entryX=0;entryY=0.5;entryDx=0;entryDy=0;startArrow=none;startFill=0;" parent="1" source="10OmN_ZCQDgGou8mG0bi-1" target="PsdoCoqwqm3rHweGqT6z-21" edge="1">
                    <mxGeometry relative="1" as="geometry"/>
                </mxCell>
                <mxCell id="10OmN_ZCQDgGou8mG0bi-1" value="Root" style="rounded=1;whiteSpace=wrap;html=1;" parent="1" vertex="1">
                    <mxGeometry x="70" y="50" width="60" height="20" as="geometry"/>
                </mxCell>
                <mxCell id="10OmN_ZCQDgGou8mG0bi-41" style="edgeStyle=orthogonalEdgeStyle;rounded=0;orthogonalLoop=1;jettySize=auto;html=1;entryX=0;entryY=0.5;entryDx=0;entryDy=0;" parent="1" source="10OmN_ZCQDgGou8mG0bi-2" target="10OmN_ZCQDgGou8mG0bi-40" edge="1">
                    <mxGeometry relative="1" as="geometry"/>
                </mxCell>
                <mxCell id="10OmN_ZCQDgGou8mG0bi-2" value="xN" style="rounded=1;whiteSpace=wrap;html=1;" parent="1" vertex="1">
                    <mxGeometry x="180" y="160" width="50" height="20" as="geometry"/>
                </mxCell>
                <mxCell id="10OmN_ZCQDgGou8mG0bi-43" style="edgeStyle=orthogonalEdgeStyle;rounded=0;orthogonalLoop=1;jettySize=auto;html=1;entryX=0;entryY=0.5;entryDx=0;entryDy=0;" parent="1" source="10OmN_ZCQDgGou8mG0bi-3" target="10OmN_ZCQDgGou8mG0bi-42" edge="1">
                    <mxGeometry relative="1" as="geometry"/>
                </mxCell>
                <mxCell id="10OmN_ZCQDgGou8mG0bi-3" value="xC" style="rounded=1;whiteSpace=wrap;html=1;" parent="1" vertex="1">
                    <mxGeometry x="180" y="220" width="50" height="20" as="geometry"/>
                </mxCell>
                <mxCell id="10OmN_ZCQDgGou8mG0bi-60" style="edgeStyle=orthogonalEdgeStyle;rounded=0;orthogonalLoop=1;jettySize=auto;html=1;entryX=0;entryY=0.5;entryDx=0;entryDy=0;startArrow=none;startFill=0;endArrow=block;endFill=1;" parent="1" source="10OmN_ZCQDgGou8mG0bi-4" target="10OmN_ZCQDgGou8mG0bi-59" edge="1">
                    <mxGeometry relative="1" as="geometry"/>
                </mxCell>
                <mxCell id="10OmN_ZCQDgGou8mG0bi-68" style="edgeStyle=orthogonalEdgeStyle;rounded=0;orthogonalLoop=1;jettySize=auto;html=1;entryX=0;entryY=0.5;entryDx=0;entryDy=0;startArrow=none;startFill=0;endArrow=block;endFill=1;" parent="1" source="10OmN_ZCQDgGou8mG0bi-4" target="10OmN_ZCQDgGou8mG0bi-66" edge="1">
                    <mxGeometry relative="1" as="geometry"/>
                </mxCell>
                <mxCell id="10OmN_ZCQDgGou8mG0bi-69" style="edgeStyle=orthogonalEdgeStyle;rounded=0;orthogonalLoop=1;jettySize=auto;html=1;entryX=0;entryY=0.5;entryDx=0;entryDy=0;startArrow=none;startFill=0;endArrow=block;endFill=1;" parent="1" source="10OmN_ZCQDgGou8mG0bi-4" target="10OmN_ZCQDgGou8mG0bi-67" edge="1">
                    <mxGeometry relative="1" as="geometry"/>
                </mxCell>
                <mxCell id="MulIUXsc9k4INs1ChKP5-11" style="edgeStyle=orthogonalEdgeStyle;rounded=0;orthogonalLoop=1;jettySize=auto;html=1;entryX=0;entryY=0.5;entryDx=0;entryDy=0;" parent="1" source="10OmN_ZCQDgGou8mG0bi-4" target="MulIUXsc9k4INs1ChKP5-3" edge="1">
                    <mxGeometry relative="1" as="geometry"/>
                </mxCell>
                <mxCell id="10OmN_ZCQDgGou8mG0bi-4" value="dObject" style="rounded=1;whiteSpace=wrap;html=1;" parent="1" vertex="1">
                    <mxGeometry x="180" y="325" width="50" height="20" as="geometry"/>
                </mxCell>
                <mxCell id="10OmN_ZCQDgGou8mG0bi-62" style="edgeStyle=orthogonalEdgeStyle;rounded=0;orthogonalLoop=1;jettySize=auto;html=1;entryX=0;entryY=0.5;entryDx=0;entryDy=0;startArrow=none;startFill=0;endArrow=block;endFill=1;" parent="1" source="10OmN_ZCQDgGou8mG0bi-5" target="10OmN_ZCQDgGou8mG0bi-61" edge="1">
                    <mxGeometry relative="1" as="geometry">
                        <Array as="points">
                            <mxPoint x="215" y="580"/>
                        </Array>
                    </mxGeometry>
                </mxCell>
                <mxCell id="10OmN_ZCQDgGou8mG0bi-5" value="pSObject" style="rounded=1;whiteSpace=wrap;html=1;" parent="1" vertex="1">
                    <mxGeometry x="180" y="540" width="70" height="20" as="geometry"/>
                </mxCell>
                <mxCell id="10OmN_ZCQDgGou8mG0bi-31" style="edgeStyle=orthogonalEdgeStyle;rounded=0;orthogonalLoop=1;jettySize=auto;html=1;entryX=0;entryY=0.5;entryDx=0;entryDy=0;" parent="1" source="10OmN_ZCQDgGou8mG0bi-6" target="10OmN_ZCQDgGou8mG0bi-2" edge="1">
                    <mxGeometry relative="1" as="geometry"/>
                </mxCell>
                <mxCell id="10OmN_ZCQDgGou8mG0bi-34" style="edgeStyle=orthogonalEdgeStyle;rounded=0;orthogonalLoop=1;jettySize=auto;html=1;entryX=0;entryY=0.5;entryDx=0;entryDy=0;" parent="1" source="10OmN_ZCQDgGou8mG0bi-6" target="10OmN_ZCQDgGou8mG0bi-3" edge="1">
                    <mxGeometry relative="1" as="geometry"/>
                </mxCell>
                <mxCell id="10OmN_ZCQDgGou8mG0bi-6" value="Coarse" style="rounded=1;whiteSpace=wrap;html=1;" parent="1" vertex="1">
                    <mxGeometry x="120" y="110" width="70" height="20" as="geometry"/>
                </mxCell>
                <mxCell id="10OmN_ZCQDgGou8mG0bi-36" style="edgeStyle=orthogonalEdgeStyle;rounded=0;orthogonalLoop=1;jettySize=auto;html=1;entryX=0;entryY=0.5;entryDx=0;entryDy=0;" parent="1" source="10OmN_ZCQDgGou8mG0bi-7" target="10OmN_ZCQDgGou8mG0bi-4" edge="1">
                    <mxGeometry relative="1" as="geometry"/>
                </mxCell>
                <mxCell id="10OmN_ZCQDgGou8mG0bi-37" style="edgeStyle=orthogonalEdgeStyle;rounded=0;orthogonalLoop=1;jettySize=auto;html=1;entryX=0;entryY=0.5;entryDx=0;entryDy=0;" parent="1" source="10OmN_ZCQDgGou8mG0bi-7" target="10OmN_ZCQDgGou8mG0bi-5" edge="1">
                    <mxGeometry relative="1" as="geometry"/>
                </mxCell>
                <mxCell id="10OmN_ZCQDgGou8mG0bi-7" value="Fine" style="rounded=1;whiteSpace=wrap;html=1;" parent="1" vertex="1">
                    <mxGeometry x="120" y="280" width="70" height="20" as="geometry"/>
                </mxCell>
                <mxCell id="10OmN_ZCQDgGou8mG0bi-28" style="edgeStyle=orthogonalEdgeStyle;rounded=0;orthogonalLoop=1;jettySize=auto;html=1;exitX=0.5;exitY=1;exitDx=0;exitDy=0;" parent="1" source="10OmN_ZCQDgGou8mG0bi-1" target="10OmN_ZCQDgGou8mG0bi-1" edge="1">
                    <mxGeometry relative="1" as="geometry"/>
                </mxCell>
                <mxCell id="2" style="edgeStyle=orthogonalEdgeStyle;rounded=1;orthogonalLoop=1;jettySize=auto;html=1;exitX=1;exitY=0.5;exitDx=0;exitDy=0;entryX=1;entryY=0.25;entryDx=0;entryDy=0;dashed=1;startArrow=oval;startFill=1;" edge="1" parent="1" source="10OmN_ZCQDgGou8mG0bi-40" target="PsdoCoqwqm3rHweGqT6z-27">
                    <mxGeometry relative="1" as="geometry">
                        <Array as="points">
                            <mxPoint x="540" y="200"/>
                            <mxPoint x="540" y="715"/>
                        </Array>
                    </mxGeometry>
                </mxCell>
                <mxCell id="10OmN_ZCQDgGou8mG0bi-40" value="MO" style="shape=process;whiteSpace=wrap;html=1;backgroundOutline=1;" parent="1" vertex="1">
                    <mxGeometry x="230" y="190" width="60" height="20" as="geometry"/>
                </mxCell>
                <mxCell id="3" style="edgeStyle=orthogonalEdgeStyle;rounded=1;orthogonalLoop=1;jettySize=auto;html=1;entryX=1;entryY=0.25;entryDx=0;entryDy=0;dashed=1;startArrow=oval;startFill=1;" edge="1" parent="1" source="10OmN_ZCQDgGou8mG0bi-42" target="PsdoCoqwqm3rHweGqT6z-27">
                    <mxGeometry relative="1" as="geometry">
                        <Array as="points">
                            <mxPoint x="540" y="260"/>
                            <mxPoint x="540" y="715"/>
                        </Array>
                    </mxGeometry>
                </mxCell>
                <mxCell id="10OmN_ZCQDgGou8mG0bi-42" value="MO" style="shape=process;whiteSpace=wrap;html=1;backgroundOutline=1;" parent="1" vertex="1">
                    <mxGeometry x="230" y="250" width="60" height="20" as="geometry"/>
                </mxCell>
                <mxCell id="10OmN_ZCQDgGou8mG0bi-59" value="MO" style="shape=process;whiteSpace=wrap;html=1;backgroundOutline=1;" parent="1" vertex="1">
                    <mxGeometry x="230" y="360" width="60" height="20" as="geometry"/>
                </mxCell>
                <mxCell id="30" style="edgeStyle=orthogonalEdgeStyle;rounded=1;orthogonalLoop=1;jettySize=auto;html=1;entryX=1;entryY=0.25;entryDx=0;entryDy=0;startArrow=oval;startFill=1;dashed=1;" edge="1" parent="1" source="10OmN_ZCQDgGou8mG0bi-61" target="21">
                    <mxGeometry relative="1" as="geometry">
                        <Array as="points">
                            <mxPoint x="650" y="580"/>
                            <mxPoint x="650" y="955"/>
                        </Array>
                    </mxGeometry>
                </mxCell>
                <mxCell id="10OmN_ZCQDgGou8mG0bi-61" value="MO" style="shape=process;whiteSpace=wrap;html=1;backgroundOutline=1;" parent="1" vertex="1">
                    <mxGeometry x="230" y="570" width="60" height="20" as="geometry"/>
                </mxCell>
                <mxCell id="MulIUXsc9k4INs1ChKP5-14" style="edgeStyle=orthogonalEdgeStyle;rounded=1;orthogonalLoop=1;jettySize=auto;html=1;exitX=1;exitY=0.5;exitDx=0;exitDy=0;entryX=1;entryY=0.25;entryDx=0;entryDy=0;dashed=1;startArrow=oval;startFill=1;" parent="1" source="10OmN_ZCQDgGou8mG0bi-66" target="MulIUXsc9k4INs1ChKP5-6" edge="1">
                    <mxGeometry relative="1" as="geometry">
                        <Array as="points">
                            <mxPoint x="410" y="400"/>
                            <mxPoint x="410" y="485"/>
                        </Array>
                    </mxGeometry>
                </mxCell>
                <mxCell id="MulIUXsc9k4INs1ChKP5-15" style="edgeStyle=orthogonalEdgeStyle;rounded=1;orthogonalLoop=1;jettySize=auto;html=1;exitX=1;exitY=0.5;exitDx=0;exitDy=0;entryX=1;entryY=0.5;entryDx=0;entryDy=0;dashed=1;startArrow=oval;startFill=1;" parent="1" source="10OmN_ZCQDgGou8mG0bi-66" target="10OmN_ZCQDgGou8mG0bi-67" edge="1">
                    <mxGeometry relative="1" as="geometry">
                        <Array as="points">
                            <mxPoint x="410" y="400"/>
                            <mxPoint x="410" y="430"/>
                        </Array>
                    </mxGeometry>
                </mxCell>
                <mxCell id="10OmN_ZCQDgGou8mG0bi-66" value="VNCS::Clustering" style="shape=process;whiteSpace=wrap;html=1;backgroundOutline=1;fillColor=#d5e8d4;strokeColor=#82b366;" parent="1" vertex="1">
                    <mxGeometry x="230" y="390" width="130" height="20" as="geometry"/>
                </mxCell>
                <mxCell id="10OmN_ZCQDgGou8mG0bi-67" value="VNCS::Projection" style="shape=process;whiteSpace=wrap;html=1;backgroundOutline=1;fillColor=#d5e8d4;strokeColor=#82b366;" parent="1" vertex="1">
                    <mxGeometry x="230" y="420" width="130" height="20" as="geometry"/>
                </mxCell>
                <mxCell id="PsdoCoqwqm3rHweGqT6z-12" value="&lt;h1&gt;Degrees of freedom&amp;nbsp;&lt;/h1&gt;" style="text;html=1;strokeColor=none;fillColor=none;spacing=5;spacingTop=-20;whiteSpace=wrap;overflow=hidden;rounded=0;align=center;" parent="1" vertex="1">
                    <mxGeometry x="220" y="100" width="250" height="40" as="geometry"/>
                </mxCell>
                <mxCell id="PsdoCoqwqm3rHweGqT6z-23" style="edgeStyle=orthogonalEdgeStyle;rounded=0;orthogonalLoop=1;jettySize=auto;html=1;entryX=0;entryY=0.5;entryDx=0;entryDy=0;startArrow=none;startFill=0;" parent="1" source="PsdoCoqwqm3rHweGqT6z-21" target="PsdoCoqwqm3rHweGqT6z-22" edge="1">
                    <mxGeometry relative="1" as="geometry">
                        <Array as="points">
                            <mxPoint x="160" y="660"/>
                        </Array>
                    </mxGeometry>
                </mxCell>
                <mxCell id="29" style="edgeStyle=orthogonalEdgeStyle;rounded=0;orthogonalLoop=1;jettySize=auto;html=1;entryX=0;entryY=0.5;entryDx=0;entryDy=0;startArrow=oval;startFill=1;" edge="1" parent="1" source="PsdoCoqwqm3rHweGqT6z-21" target="18">
                    <mxGeometry relative="1" as="geometry">
                        <Array as="points">
                            <mxPoint x="160" y="900"/>
                        </Array>
                    </mxGeometry>
                </mxCell>
                <mxCell id="PsdoCoqwqm3rHweGqT6z-21" value="Energies" style="rounded=1;whiteSpace=wrap;html=1;" parent="1" vertex="1">
                    <mxGeometry x="130" y="610" width="90" height="20" as="geometry"/>
                </mxCell>
                <mxCell id="PsdoCoqwqm3rHweGqT6z-28" style="edgeStyle=orthogonalEdgeStyle;rounded=0;orthogonalLoop=1;jettySize=auto;html=1;entryX=0;entryY=0.5;entryDx=0;entryDy=0;startArrow=none;startFill=0;" parent="1" source="PsdoCoqwqm3rHweGqT6z-22" target="PsdoCoqwqm3rHweGqT6z-27" edge="1">
                    <mxGeometry relative="1" as="geometry"/>
                </mxCell>
                <mxCell id="PsdoCoqwqm3rHweGqT6z-30" style="edgeStyle=orthogonalEdgeStyle;rounded=0;orthogonalLoop=1;jettySize=auto;html=1;entryX=0;entryY=0.5;entryDx=0;entryDy=0;startArrow=none;startFill=0;" parent="1" source="PsdoCoqwqm3rHweGqT6z-22" target="PsdoCoqwqm3rHweGqT6z-29" edge="1">
                    <mxGeometry relative="1" as="geometry"/>
                </mxCell>
                <mxCell id="6" style="edgeStyle=orthogonalEdgeStyle;rounded=0;orthogonalLoop=1;jettySize=auto;html=1;entryX=0;entryY=0.5;entryDx=0;entryDy=0;startArrow=oval;startFill=1;" edge="1" parent="1" source="PsdoCoqwqm3rHweGqT6z-22" target="5">
                    <mxGeometry relative="1" as="geometry"/>
                </mxCell>
                <mxCell id="8" style="edgeStyle=orthogonalEdgeStyle;rounded=0;orthogonalLoop=1;jettySize=auto;html=1;entryX=0;entryY=0.5;entryDx=0;entryDy=0;startArrow=oval;startFill=1;" edge="1" parent="1" source="PsdoCoqwqm3rHweGqT6z-22" target="7">
                    <mxGeometry relative="1" as="geometry"/>
                </mxCell>
                <mxCell id="PsdoCoqwqm3rHweGqT6z-22" value="Coarse" style="rounded=1;whiteSpace=wrap;html=1;" parent="1" vertex="1">
                    <mxGeometry x="180" y="650" width="90" height="20" as="geometry"/>
                </mxCell>
                <mxCell id="4" style="edgeStyle=orthogonalEdgeStyle;rounded=1;orthogonalLoop=1;jettySize=auto;html=1;entryX=1;entryY=0.25;entryDx=0;entryDy=0;dashed=1;exitX=1;exitY=0.75;exitDx=0;exitDy=0;startArrow=oval;startFill=1;" edge="1" parent="1" source="PsdoCoqwqm3rHweGqT6z-27" target="PsdoCoqwqm3rHweGqT6z-29">
                    <mxGeometry relative="1" as="geometry">
                        <Array as="points">
                            <mxPoint x="420" y="725"/>
                            <mxPoint x="420" y="745"/>
                        </Array>
                    </mxGeometry>
                </mxCell>
                <mxCell id="PsdoCoqwqm3rHweGqT6z-27" value="VNCS::ConcatMap" style="shape=process;whiteSpace=wrap;html=1;backgroundOutline=1;fillColor=#d5e8d4;strokeColor=#82b366;" parent="1" vertex="1">
                    <mxGeometry x="245" y="710" width="145" height="20" as="geometry"/>
                </mxCell>
                <mxCell id="33" style="edgeStyle=orthogonalEdgeStyle;rounded=1;orthogonalLoop=1;jettySize=auto;html=1;exitX=1;exitY=0.75;exitDx=0;exitDy=0;entryX=1;entryY=0.25;entryDx=0;entryDy=0;dashed=1;startArrow=oval;startFill=1;" edge="1" parent="1" source="PsdoCoqwqm3rHweGqT6z-29" target="11">
                    <mxGeometry relative="1" as="geometry">
                        <Array as="points">
                            <mxPoint x="710" y="755"/>
                            <mxPoint x="710" y="835"/>
                        </Array>
                    </mxGeometry>
                </mxCell>
                <mxCell id="PsdoCoqwqm3rHweGqT6z-29" value="MO" style="shape=process;whiteSpace=wrap;html=1;backgroundOutline=1;" parent="1" vertex="1">
                    <mxGeometry x="245" y="740" width="75" height="20" as="geometry"/>
                </mxCell>
                <mxCell id="MulIUXsc9k4INs1ChKP5-12" style="edgeStyle=orthogonalEdgeStyle;rounded=0;orthogonalLoop=1;jettySize=auto;html=1;entryX=0;entryY=0.5;entryDx=0;entryDy=0;" parent="1" source="MulIUXsc9k4INs1ChKP5-3" target="MulIUXsc9k4INs1ChKP5-6" edge="1">
                    <mxGeometry relative="1" as="geometry"/>
                </mxCell>
                <mxCell id="MulIUXsc9k4INs1ChKP5-13" style="edgeStyle=orthogonalEdgeStyle;rounded=0;orthogonalLoop=1;jettySize=auto;html=1;entryX=0;entryY=0.5;entryDx=0;entryDy=0;" parent="1" source="MulIUXsc9k4INs1ChKP5-3" target="MulIUXsc9k4INs1ChKP5-4" edge="1">
                    <mxGeometry relative="1" as="geometry">
                        <Array as="points">
                            <mxPoint x="255" y="520"/>
                        </Array>
                    </mxGeometry>
                </mxCell>
                <mxCell id="MulIUXsc9k4INs1ChKP5-3" value="uf" style="rounded=1;whiteSpace=wrap;html=1;" parent="1" vertex="1">
                    <mxGeometry x="230.00000000000003" y="450" width="50" height="20" as="geometry"/>
                </mxCell>
                <mxCell id="31" style="edgeStyle=orthogonalEdgeStyle;rounded=1;orthogonalLoop=1;jettySize=auto;html=1;entryX=1;entryY=0.25;entryDx=0;entryDy=0;dashed=1;startArrow=oval;startFill=1;exitX=1;exitY=0.75;exitDx=0;exitDy=0;" edge="1" parent="1" source="MulIUXsc9k4INs1ChKP5-4" target="21">
                    <mxGeometry relative="1" as="geometry">
                        <Array as="points">
                            <mxPoint x="650" y="525"/>
                            <mxPoint x="650" y="955"/>
                        </Array>
                    </mxGeometry>
                </mxCell>
                <mxCell id="MulIUXsc9k4INs1ChKP5-4" value="MO" style="shape=process;whiteSpace=wrap;html=1;backgroundOutline=1;" parent="1" vertex="1">
                    <mxGeometry x="270.02" y="510" width="60" height="20" as="geometry"/>
                </mxCell>
                <mxCell id="MulIUXsc9k4INs1ChKP5-5" style="edgeStyle=orthogonalEdgeStyle;rounded=1;orthogonalLoop=1;jettySize=auto;html=1;exitX=1;exitY=0.75;exitDx=0;exitDy=0;dashed=1;startArrow=oval;startFill=1;entryX=1;entryY=0.25;entryDx=0;entryDy=0;" parent="1" source="MulIUXsc9k4INs1ChKP5-6" target="MulIUXsc9k4INs1ChKP5-4" edge="1">
                    <mxGeometry relative="1" as="geometry">
                        <mxPoint x="340.0000000000001" y="570" as="targetPoint"/>
                        <Array as="points">
                            <mxPoint x="410" y="495"/>
                            <mxPoint x="410" y="515"/>
                        </Array>
                    </mxGeometry>
                </mxCell>
                <mxCell id="MulIUXsc9k4INs1ChKP5-6" value="VNCS::UfMap" style="shape=process;whiteSpace=wrap;html=1;backgroundOutline=1;fillColor=#d5e8d4;strokeColor=#82b366;" parent="1" vertex="1">
                    <mxGeometry x="270" y="480" width="110" height="20" as="geometry"/>
                </mxCell>
                <mxCell id="5" value="VNCS::SamplingPoints" style="shape=process;whiteSpace=wrap;html=1;backgroundOutline=1;fillColor=#d5e8d4;strokeColor=#82b366;" vertex="1" parent="1">
                    <mxGeometry x="245" y="770" width="195" height="20" as="geometry"/>
                </mxCell>
                <mxCell id="12" style="edgeStyle=orthogonalEdgeStyle;rounded=0;orthogonalLoop=1;jettySize=auto;html=1;entryX=0;entryY=0.5;entryDx=0;entryDy=0;startArrow=oval;startFill=1;" edge="1" parent="1" source="7" target="11">
                    <mxGeometry relative="1" as="geometry"/>
                </mxCell>
                <mxCell id="37" style="edgeStyle=orthogonalEdgeStyle;rounded=0;orthogonalLoop=1;jettySize=auto;html=1;entryX=0;entryY=0.5;entryDx=0;entryDy=0;startArrow=oval;startFill=1;" edge="1" parent="1" source="7" target="34">
                    <mxGeometry relative="1" as="geometry"/>
                </mxCell>
                <mxCell id="7" value="DeformationGradient" style="rounded=1;whiteSpace=wrap;html=1;" vertex="1" parent="1">
                    <mxGeometry x="245" y="800" width="165" height="20" as="geometry"/>
                </mxCell>
                <mxCell id="38" style="edgeStyle=orthogonalEdgeStyle;rounded=1;orthogonalLoop=1;jettySize=auto;html=1;entryX=1;entryY=0.5;entryDx=0;entryDy=0;startArrow=oval;startFill=1;exitX=1;exitY=0.75;exitDx=0;exitDy=0;dashed=1;" edge="1" parent="1" source="11" target="34">
                    <mxGeometry relative="1" as="geometry"/>
                </mxCell>
                <mxCell id="11" value="VNCS::DeformationGradientMap" style="shape=process;whiteSpace=wrap;html=1;backgroundOutline=1;fillColor=#d5e8d4;strokeColor=#82b366;" vertex="1" parent="1">
                    <mxGeometry x="350" y="830" width="270" height="20" as="geometry"/>
                </mxCell>
                <mxCell id="14" style="edgeStyle=orthogonalEdgeStyle;rounded=0;orthogonalLoop=1;jettySize=auto;html=1;entryX=0;entryY=0.5;entryDx=0;entryDy=0;startArrow=none;startFill=0;" edge="1" parent="1" source="18" target="21">
                    <mxGeometry relative="1" as="geometry"/>
                </mxCell>
                <mxCell id="15" style="edgeStyle=orthogonalEdgeStyle;rounded=0;orthogonalLoop=1;jettySize=auto;html=1;entryX=0;entryY=0.5;entryDx=0;entryDy=0;startArrow=none;startFill=0;" edge="1" parent="1" source="18" target="22">
                    <mxGeometry relative="1" as="geometry"/>
                </mxCell>
                <mxCell id="16" style="edgeStyle=orthogonalEdgeStyle;rounded=0;orthogonalLoop=1;jettySize=auto;html=1;entryX=0;entryY=0.5;entryDx=0;entryDy=0;startArrow=oval;startFill=1;" edge="1" parent="1" source="18" target="23">
                    <mxGeometry relative="1" as="geometry"/>
                </mxCell>
                <mxCell id="17" style="edgeStyle=orthogonalEdgeStyle;rounded=0;orthogonalLoop=1;jettySize=auto;html=1;entryX=0;entryY=0.5;entryDx=0;entryDy=0;startArrow=oval;startFill=1;" edge="1" parent="1" source="18" target="26">
                    <mxGeometry relative="1" as="geometry"/>
                </mxCell>
                <mxCell id="18" value="Fine" style="rounded=1;whiteSpace=wrap;html=1;" vertex="1" parent="1">
                    <mxGeometry x="180" y="890" width="90" height="20" as="geometry"/>
                </mxCell>
                <mxCell id="20" style="edgeStyle=orthogonalEdgeStyle;rounded=1;orthogonalLoop=1;jettySize=auto;html=1;entryX=1;entryY=0.25;entryDx=0;entryDy=0;dashed=1;exitX=1;exitY=0.75;exitDx=0;exitDy=0;startArrow=oval;startFill=1;" edge="1" parent="1" source="21" target="22">
                    <mxGeometry relative="1" as="geometry">
                        <Array as="points">
                            <mxPoint x="420" y="965"/>
                            <mxPoint x="420" y="985"/>
                        </Array>
                    </mxGeometry>
                </mxCell>
                <mxCell id="21" value="VNCS::ConcatMap" style="shape=process;whiteSpace=wrap;html=1;backgroundOutline=1;fillColor=#d5e8d4;strokeColor=#82b366;" vertex="1" parent="1">
                    <mxGeometry x="245" y="950" width="145" height="20" as="geometry"/>
                </mxCell>
                <mxCell id="32" style="edgeStyle=orthogonalEdgeStyle;rounded=1;orthogonalLoop=1;jettySize=auto;html=1;entryX=1;entryY=0.25;entryDx=0;entryDy=0;dashed=1;startArrow=oval;startFill=1;exitX=1;exitY=0.75;exitDx=0;exitDy=0;" edge="1" parent="1" source="22" target="11">
                    <mxGeometry relative="1" as="geometry">
                        <Array as="points">
                            <mxPoint x="710" y="995"/>
                            <mxPoint x="710" y="835"/>
                        </Array>
                    </mxGeometry>
                </mxCell>
                <mxCell id="22" value="MO" style="shape=process;whiteSpace=wrap;html=1;backgroundOutline=1;" vertex="1" parent="1">
                    <mxGeometry x="245" y="980" width="75" height="20" as="geometry"/>
                </mxCell>
                <mxCell id="23" value="VNCS::SamplingPoints" style="shape=process;whiteSpace=wrap;html=1;backgroundOutline=1;fillColor=#d5e8d4;strokeColor=#82b366;" vertex="1" parent="1">
                    <mxGeometry x="245" y="1010" width="195" height="20" as="geometry"/>
                </mxCell>
                <mxCell id="24" style="edgeStyle=orthogonalEdgeStyle;rounded=0;orthogonalLoop=1;jettySize=auto;html=1;entryX=0;entryY=0.5;entryDx=0;entryDy=0;startArrow=oval;startFill=1;" edge="1" parent="1" source="26" target="27">
                    <mxGeometry relative="1" as="geometry"/>
                </mxCell>
                <mxCell id="25" style="edgeStyle=orthogonalEdgeStyle;rounded=0;orthogonalLoop=1;jettySize=auto;html=1;entryX=0;entryY=0.5;entryDx=0;entryDy=0;startArrow=oval;startFill=1;" edge="1" parent="1" source="26" target="28">
                    <mxGeometry relative="1" as="geometry"/>
                </mxCell>
                <mxCell id="26" value="DeformationGradient" style="rounded=1;whiteSpace=wrap;html=1;" vertex="1" parent="1">
                    <mxGeometry x="245" y="1040" width="165" height="20" as="geometry"/>
                </mxCell>
                <mxCell id="27" value="MO" style="shape=process;whiteSpace=wrap;html=1;backgroundOutline=1;" vertex="1" parent="1">
                    <mxGeometry x="350" y="1070" width="75" height="20" as="geometry"/>
                </mxCell>
                <mxCell id="28" value="VNCS::DeformationGradientMap" style="shape=process;whiteSpace=wrap;html=1;backgroundOutline=1;fillColor=#d5e8d4;strokeColor=#82b366;" vertex="1" parent="1">
                    <mxGeometry x="350" y="1100" width="270" height="20" as="geometry"/>
                </mxCell>
                <mxCell id="34" value="MO" style="shape=process;whiteSpace=wrap;html=1;backgroundOutline=1;" vertex="1" parent="1">
                    <mxGeometry x="350" y="860" width="75" height="20" as="geometry"/>
                </mxCell>
            </root>
        </mxGraphModel>
    </diagram>
</mxfile>